<?xml version="1.0" encoding="utf-8"?>
<!-- Generator: Adobe Illustrator 28.3.0, SVG Export Plug-In . SVG Version: 6.00 Build 0)  -->
<svg version="1.1" baseProfile="basic" id="Camada_1"
	 xmlns="http://www.w3.org/2000/svg" xmlns:xlink="http://www.w3.org/1999/xlink" x="0px" y="0px" viewBox="0 0 472.21 78.35"
	 xml:space="preserve">
<g>
	<g id="Grupo_298_00000160872608289533852160000012302247074097888669_">
		<path id="Caminho_1054_00000047037576610998437270000003137966065916087461_" d="M46.22,51.86
			c2.88-8.72,5.75-17.45,8.63-26.17c2.37-7.25,4.75-14.49,7.03-21.77c0.38-2.52,2.73-4.25,5.25-3.88c6.89,0.26,13.8,0.07,20.7,0.09
			c1.87,0,3.84-0.11,3.87,2.7c0.03,2.8-1.92,2.68-3.8,2.84c-1.23,0.1-2.44,0.32-3.67,0.46c-3.55,0.39-5.09,2.28-5.08,5.92
			c0.08,18,0.08,36,0,54c-0.02,3.8,1.54,5.78,5.28,6.13c1.35,0.13,2.69,0.34,4.03,0.42c1.81,0.13,3.44,0.21,3.45,2.76
			c0,2.82-1.86,2.77-3.76,2.77c-6.78,0.02-13.56,0.02-20.33,0c-3.33,0-6.67,0.18-9.97-0.13c-1.24-0.33-2.25-1.23-2.72-2.42
			c-0.62-1.91,0.62-2.76,2.61-2.99c9.66-1.19,9.64-1.23,9.65-11.11c0.02-15.16,0.04-30.33,0.07-45.49c0-0.85-0.07-1.7-0.16-3.59
			c-0.89,1.13-1.65,2.35-2.29,3.64c-5.56,17.07-11.08,34.16-16.57,51.25c-0.91,2.81-1.73,5.66-2.91,8.35
			c-0.44,1-1.84,2.33-2.66,2.23c-1.32-0.25-2.44-1.11-3.03-2.31c-2.63-7.55-5.03-15.18-7.44-22.8c-3.9-12.3-7.75-24.63-11.65-36.94
			c-0.13-0.4-0.55-0.71-1.45-1.83c-0.23,1.38-0.4,2.77-0.49,4.17c-0.02,14.18-0.02,28.35,0,42.53c0,0.37,0,0.74,0.02,1.11
			c0.26,7.27,1.26,8.56,8.31,10.43c1.91,0.51,3.54,0.98,3.27,3.55c-0.27,2.61-2.17,2.31-3.83,2.33c-7.64,0.04-15.28,0.04-22.92,0
			c-1.72,0-3.51,0.2-3.64-2.46c-0.11-2.32,1.08-2.86,3.03-3.26c8.07-1.68,9.18-3.03,9.22-11.47c0.06-15.53,0.03-31.07,0.02-46.6
			c0-7.06-0.95-8.09-7.92-8.7C3.86,5.59,3.2,5.77,2.91,5.52C2.02,4.74,0.66,3.81,0.65,2.91C0.63,2.01,1.99,0.32,2.77,0.3
			c7.76-0.21,15.52-0.23,23.28,0c1.01,0.03,2.49,1.58,2.86,2.72c5.04,15.43,9.91,30.92,14.86,46.38c0.39,0.95,0.87,1.86,1.42,2.72
			L46.22,51.86z"/>
		<path id="Caminho_1055_00000004536734700525846880000005352671589850228626_" d="M375.84,40.12
			c9.02,4.34,11.6,12.63,13.51,21.35c0.57,2.62,1.02,6.17,4.24,6.04c3.34-0.13,2.55-3.92,3.18-6.27c0.22-0.83,0-1.93,0.47-2.5
			c0.65-0.89,1.63-1.48,2.72-1.64c0.83,0.07,2.28,1.45,2.2,2.1c-0.22,4.03-0.93,8.02-2.11,11.88c-2.12,5.64-6.73,7.67-13.23,6.89
			c-5.15-0.61-9.01-4.59-10-10.82c-0.78-4.86-1.29-9.76-1.7-14.67c-0.68-8.18-4.06-11.51-12.2-11.53c-9.65-0.02-8.46-0.91-8.44,8.48
			c-0.1,5.66,0.09,11.32,0.56,16.97c0.5,4.81,2.19,5.96,7.08,6.28c1.97,0.13,4.18-0.21,4.05,2.86c-0.13,3.07-2.45,2.57-4.34,2.58
			c-9.24,0.04-18.48,0.03-27.71,0c-1.87,0-3.84,0.11-3.89-2.68s1.88-2.69,3.77-2.84c6.41-0.5,8.08-2.03,8.13-8.42
			c0.13-17.25,0.04-34.5,0.07-51.75c0-3.76-1.56-6.09-5.51-6.42c-1.35,0.06-2.7-0.13-3.98-0.56c-1.06-0.61-1.8-1.64-2.03-2.84
			c-0.07-0.74,1.22-1.73,2.07-2.39c0.39-0.31,1.19-0.11,1.81-0.11c12.07,0,24.15-0.24,36.21,0.16c4.65,0.19,9.23,1.18,13.54,2.94
			c7.16,2.91,10.66,8.7,10.62,16.59c-0.05,7.9-4.32,12.81-10.99,16.06c-2.58,1.26-5.33,2.17-8,3.25L375.84,40.12z M362.09,35.82
			c3.51-0.49,7.06-0.85,10.54-1.52c3.37-0.53,6.16-2.92,7.21-6.16c2.04-5.09,2.08-10.76,0.1-15.86c-1.02-2.41-2.94-4.33-5.35-5.36
			c-4.01-1.06-8.16-1.52-12.3-1.38c-5.69,0.03-7.69,2.27-7.81,7.93c-0.09,4.79-0.03,9.59-0.03,14.38
			C354.45,35.52,354.46,35.52,362.09,35.82z"/>
		<path id="Caminho_1056_00000150101409016702827790000017745402579308529057_" d="M289.65,78.15
			c-9.86,0-19.71,0.04-29.56-0.03c-1.81-0.01-4.18,0.68-4.39-2.48c-0.21-3.05,1.95-2.86,3.91-3.09c7.21-0.85,7.93-1.68,7.95-9.09
			c0.02-16.26,0.02-32.53,0-48.8c0-7.35-0.81-8.24-8.03-8.95c-2.06-0.2-4.05-0.18-3.82-3.16c0.22-2.88,2.36-2.39,4.1-2.4
			c19.59-0.03,39.17,0.01,58.75-0.06c2.85-0.01,3.94,1,3.97,3.86c0.06,7.15,0.34,14.29,0.52,21.44c0.04,1.73,0.21,3.94-2.3,3.65
			c-1.03-0.12-2.29-1.78-2.7-2.99c-1.15-3.36-1.72-6.92-2.87-10.28c-1.21-4.43-4.89-7.75-9.43-8.5c-7.06-0.72-14.15-1.02-21.24-0.91
			c-3.29-0.02-4.68,2.29-4.68,5.46c0,6.66,0.05,13.31-0.06,19.96c-0.04,2.53,1.1,3.14,3.39,3.05c9.38-0.36,12.6-3.08,14.69-12.19
			c0.24-1.04,1.81-1.78,2.76-2.65c0.58,1.03,1.66,2.06,1.67,3.09c0.12,10.35,0.12,20.7,0,31.05c-0.1,1.18-0.77,2.24-1.79,2.83
			c-2,0.49-2.58-1.03-2.85-2.86c-1.42-9.52-5.57-13.37-14.3-13.65c-2.42-0.08-3.63,0.52-3.58,3.25c0.14,7.51,0.07,15.03,0.06,22.55
			c0,3.3,1.34,5.74,4.84,5.73c7.34-0.05,14.83,0.36,21.98-0.94c7-1.27,9.89-7.57,11.71-13.96c0.72-2.48,1.26-5.01,1.61-7.57
			c0.26-2.04,1.25-3.18,3.08-2.48c1.12,0.64,1.86,1.79,1.97,3.08c-0.38,8.48-1.06,16.97-1.53,25.45c-0.14,2.53-1.7,2.61-3.53,2.61
			C309.85,78.14,299.75,78.14,289.65,78.15z"/>
		<path id="Caminho_1057_00000022532330941831427840000011830148346511526025_" d="M203.3,78.15
			c-6.15,0-12.32,0.02-18.48-0.01c-1.7-0.01-3.53,0.26-3.7-2.4c-0.17-2.62,1.27-3.16,3.38-3.18c0.49-0.02,0.98-0.07,1.47-0.15
			c6.13-0.85,6.85-1.56,6.87-7.71c0.05-17.01,0.05-34.01,0-51.02c-0.01-6.46-0.8-7.21-7.42-7.97c-1.2-0.14-2.74-0.05-3.48-0.75
			c-0.69-0.97-0.9-2.2-0.56-3.33c0.57-0.85,1.52-1.38,2.55-1.42c13.54,0.04,27.15-0.61,40.61,0.53
			c15.09,1.27,24.42,10.82,28.74,25.01c3.74,11.54,2.55,24.12-3.3,34.75c-5.12,10.01-15.16,16.55-26.38,17.18
			c-6.72,0.57-13.53,0.1-20.3,0.1L203.3,78.15z M205.52,38.73c0,8.99-0.15,17.98,0.12,26.96c0.01,2.13,0.94,4.16,2.55,5.57
			c9.45,5.15,25.45-0.82,29.46-10.89c4.61-11.59,4.39-23.57,2.01-35.58c-3.07-15.48-13.98-20.2-27.75-18.97
			c-5.2,0.47-6.36,1.89-6.38,7.06C205.49,21.49,205.51,30.11,205.52,38.73L205.52,38.73z"/>
		<path id="Caminho_1058_00000137811826231912069920000012570289091393904272_" d="M407.19,40.74
			c-0.17-12.51,3.26-22.52,11.16-30.75c13.44-14.01,33.3-12.94,45.28,2.36c12.07,15.4,11.29,40.79-1.7,55.45
			c-14.48,16.33-38.35,13.32-49.54-6.28C408.77,55.21,406.96,48.01,407.19,40.74z M459,39.94c-1.11-7.6-1.75-14.21-3.11-20.68
			c-1.1-7.36-7.09-13-14.5-13.65c-7.57-1.19-14.82,3.48-16.89,10.85c-5,14.81-5.01,30.84-0.02,45.65
			c1.91,6.69,8.23,11.14,15.17,10.7c7.68,0.02,13.24-3.78,15.27-10.99C456.99,54.45,457.79,46.71,459,39.94z"/>
		<path id="Caminho_1059_00000090994270602163173460000004318457196808709560_" d="M157.62,78.15
			c-5.05,0-10.1,0-15.15-0.01c-1.68,0-3.18-0.14-3.28-2.48c-0.1-2.41,1.25-2.94,3.19-3.03c0.86-0.04,1.72-0.11,2.58-0.21
			c6.44-0.74,7.11-1.89,4.76-8.07c-0.95-2.14-1.73-4.34-2.36-6.59c-0.22-2.53-2.45-4.39-4.97-4.17c-0.16,0.01-0.32,0.04-0.48,0.07
			c-5.9,0.2-11.82,0.12-17.74,0.03c-2.15-0.38-4.19,1.06-4.57,3.2c0,0.02-0.01,0.03-0.01,0.05c-0.56,2.26-1.44,4.44-2.14,6.67
			c-1.73,5.46-0.34,7.79,5.28,8.88c0.85,0.16,1.95-0.08,2.51,0.38c0.97,0.7,1.64,1.72,1.9,2.89c-0.26,1.07-1.07,1.91-2.12,2.23
			c-8.74,0.16-17.48,0.16-26.23,0c-0.67-0.01-1.81-1.58-1.84-2.45c-0.03-0.87,0.95-2.59,1.62-2.65c8.08-0.79,10.8-6.62,13.15-13.17
			c6.74-18.88,13.7-37.66,20.43-56.53c0.45-1.97,2.33-3.26,4.33-2.97c2.24,0.03,3.84,0.26,4.75,2.91
			c5.05,14.77,10.32,29.46,15.51,44.19c2.21,6.26,4.4,12.53,6.59,18.79c1.55,4.47,5.04,6.14,9.37,6.51
			c2.04,0.17,3.61,0.48,3.43,3.15s-2.04,2.36-3.72,2.38C167.47,78.18,162.56,78.15,157.62,78.15z M143.49,46.76l-9.54-27.49h-1.23
			l-9.44,27.48L143.49,46.76z"/>
	</g>
</g>
</svg>
